<?xml version="1.0" encoding="UTF-8"?>
<svg width="1024" height="1024" viewBox="0 0 768 768" xmlns="http://www.w3.org/2000/svg">
 <circle cx="384" cy="384" r="384" fill="#83cd4f"/>
 <path d="m149.71 182.63c-0.1 0.5-0.2 52.1-0.1 114.5 0.1 99.8 0.5 133.8 1.8 135.9 0.2 0.3 0.7 2.8 1 5.6 0.6 5.5 1.2 8.6 2.7 15.5 0.6 2.5 1.3 5.5 1.5 6.7 1.2 6 8.2 25 12.9 34.8 9.9 20.5 22.8 37.5 40 52.5 4.5 3.9 6.2 5.2 15.5 11.4 26.7 17.8 59.6 27 96 26.9 55.4-0.1 103.2-23.4 132.2-64.5 8.3-11.6 12.6-19.3 18.9-33.3 7.7-17.3 13.8-44 15.5-67.5 0.5-7 0.9-228.1 0.5-238-0.1-1.3-4.2-1.5-31.3-1.5h-31.3l-0.2 11c-0.2 6.1-0.4 60.3-0.6 120.5s-0.7 111.1-1.1 113-1.2 6.2-1.7 9.5c-1.1 6.7-1.6 8.5-5.5 20-14.4 43.2-50.9 70-95.4 69.8-23.2 0-42.5-5.5-60-17.1-16.2-10.8-30.9-29.8-38.3-49.7-2.9-7.6-6.5-20.9-7.3-26.5-0.2-1.9-0.8-6.4-1.3-10s-1-58.9-1-122.9c-0.1-64.1-0.4-116.7-0.7-117-1-1.1-62.4-0.7-62.7 0.4zm405.7-0.6c-0.2 0.2-0.4 89.5-0.4 198.3 0 187.7 0.1 197.8 1.8 197.9 12.3 0.3 60.4 0 60.9-0.5 0.8-0.7 1-395.5 0.3-395.7-1.4-0.4-62.2-0.3-62.6 0z" fill="#111315"/>
</svg>
