<svg hidden="">
    <symbol id="icon-chevron-left" fill="none" viewBox="0 0 24 24" stroke="currentColor">
        <path stroke-linecap="round" stroke-linejoin="round" stroke-width="2" d="M15 19l-7-7 7-7" />
    </symbol>
    <symbol id="icon-chevron-right" fill="none" viewBox="0 0 24 24" stroke="currentColor">
        <path stroke-linecap="round" stroke-linejoin="round" stroke-width="2" d="M9 5l7 7-7 7" />
    </symbol>
    <symbol id="icon-angle-down" fill="currentColor" viewBox="0 0 24 24" stroke="currentColor">
        <path d="M10.998 15.467c.491.71 1.513.71 2.004 0l3.767-5.453c.581-.843 0-2.013-1.002-2.014H8.234C7.232 8 6.65 9.17 7.231 10.014z" />
    </symbol>
    <symbol id="icon-angle-up" fill="currentColor" viewBox="0 0 24 24" stroke="currentColor">
        <path d="M10.998 15.467c.491.71 1.513.71 2.004 0l3.767-5.453c.581-.843 0-2.013-1.002-2.014H8.234C7.232 8 6.65 9.17 7.231 10.014z" style="transform: scaleY(-1) translateY(1px); transform-origin: 50% 50%;" />
    </symbol>
    <symbol id="icon-exclamation-circle" fill="none" viewBox="0 0 24 24" stroke="currentColor">
        <path stroke-linecap="round" stroke-linejoin="round" stroke-width="2" d="M12 8v4m0 4h.01M21 12a9 9 0 11-18 0 9 9 0 0118 0z" />
    </symbol>
    <symbol id="icon-x" fill="none" viewBox="0 0 24 24" stroke="currentColor">
        <path stroke-linecap="round" stroke-linejoin="round" stroke-width="1.75" d="M6 18L18 6M6 6l12 12" />
    </symbol>
    <symbol id="icon-menu" fill="none" viewBox="0 0 24 24" stroke="currentColor">
        <path stroke-linecap="round" stroke-linejoin="round" stroke-width="2" d="M4 6h16M4 12h16M4 18h16" />
    </symbol>
    <symbol id="icon-moon" fill="none" viewBox="0 0 24 24" stroke="currentColor">
        <path stroke-linecap="round" stroke-linejoin="round" stroke-width="2" d="M20.354 15.354A9 9 0 018.646 3.646 9.003 9.003 0 0012 21a9.003 9.003 0 008.354-5.646z" />
    </symbol>
    <symbol id="icon-sun" fill="none" viewBox="0 0 24 24" stroke="currentColor">
        <path stroke-linecap="round" stroke-linejoin="round" stroke-width="2" d="M12 3v1m0 16v1m9-9h-1M4 12H3m15.364 6.364l-.707-.707M6.343 6.343l-.707-.707m12.728 0l-.707.707M6.343 17.657l-.707.707M16 12a4 4 0 11-8 0 4 4 0 018 0z" />
    </symbol>
    <symbol id="icon-at-symbol" fill="none" viewBox="0 0 24 24" stroke="currentColor">
        <path stroke-linecap="round" stroke-linejoin="round" stroke-width="2" d="M16 12a4 4 0 10-8 0 4 4 0 008 0zm0 0v1.5a2.5 2.5 0 005 0V12a9 9 0 10-9 9m4.5-1.206a8.959 8.959 0 01-4.5 1.207" />
    </symbol>
</svg>
